<?xml version="1.0" standalone="no"?>
<!DOCTYPE svg PUBLIC "-//W3C//DTD SVG 20010904//EN"
 "http://www.w3.org/TR/2001/REC-SVG-20010904/DTD/svg10.dtd">
<svg version="1.0" xmlns="http://www.w3.org/2000/svg"
 width="1820.000000pt" height="400.000000pt" viewBox="0 0 1820.000000 400.000000"
 preserveAspectRatio="xMidYMid meet">

<g transform="translate(0.000000,400.000000) scale(0.100000,-0.100000)"
fill="#000000" stroke="none">
<path d="M9673 3063 c-93 -109 -300 -378 -493 -643 -207 -284 -233 -316 -248
-306 -5 3 -98 129 -206 281 -109 151 -204 282 -212 290 -17 16 -69 21 -78 6
-3 -4 93 -145 213 -313 120 -168 224 -314 230 -326 10 -18 -17 -59 -234 -357
-135 -186 -242 -341 -239 -346 3 -5 20 -9 39 -9 32 0 40 9 249 298 119 163
223 306 232 317 18 24 -13 63 265 -322 l211 -293 39 0 c21 0 39 5 39 10 0 6
-108 160 -240 343 -132 183 -240 337 -240 343 0 6 147 225 326 485 284 412
363 529 398 587 17 28 -5 9 -51 -45z"/>
<path d="M6260 2015 l0 -685 28 6 c15 3 33 7 40 10 9 3 12 129 13 586 0 321 3
600 7 622 l7 39 56 -79 c31 -44 229 -331 439 -639 353 -516 617 -883 671 -931
14 -12 6 6 -21 51 -45 73 -1056 1588 -1109 1663 -29 40 -34 42 -81 42 l-50 0
0 -685z"/>
<path d="M7415 2688 c-3 -7 -4 -312 -3 -678 l3 -665 455 0 455 0 0 25 0 25
-415 5 -415 5 0 300 0 300 385 5 385 5 0 30 0 30 -385 5 -385 5 -3 272 -2 271
27 6 c16 3 141 15 278 27 138 11 254 25 259 30 6 5 -121 9 -312 9 -249 0 -324
-3 -327 -12z"/>
<path d="M9554 2686 c-3 -8 -4 -23 -2 -33 3 -17 21 -18 236 -21 127 -1 233 -3
234 -5 1 -1 5 -290 8 -642 l5 -640 30 0 30 0 5 640 c3 352 6 641 8 642 1 2
107 4 235 5 l232 3 0 30 0 30 -508 3 c-436 2 -508 0 -513 -12z"/>
<path d="M10790 2046 c-16 -20 -9 -56 13 -70 39 -24 79 44 41 71 -23 17 -39
16 -54 -1z"/>
<path d="M11076 1895 c-16 -9 -35 -23 -42 -33 -12 -15 -13 -14 -14 11 0 23 -4
27 -30 27 l-30 0 0 -195 0 -195 30 0 30 0 0 126 c0 128 5 150 43 192 26 28
101 31 133 4 38 -30 44 -56 44 -191 l0 -131 35 0 35 0 0 139 0 139 29 31 c24
26 36 31 76 31 38 0 52 -5 76 -29 l29 -29 0 -141 0 -141 35 0 35 0 0 138 c0
123 -2 142 -22 182 -50 97 -190 110 -257 24 l-21 -27 -21 27 c-43 54 -131 73
-193 41z"/>
<path d="M11765 1896 c-97 -44 -141 -169 -96 -272 30 -66 56 -92 113 -109 68
-20 126 -8 175 38 13 11 26 18 29 14 13 -12 -8 -127 -28 -152 -44 -57 -156
-54 -200 5 -16 23 -30 30 -55 30 l-33 0 13 -32 c7 -17 30 -45 51 -62 33 -27
47 -31 112 -34 65 -4 79 -1 118 22 30 17 51 40 65 69 19 40 21 60 21 265 l0
222 -30 0 c-27 0 -30 -3 -30 -32 l0 -31 -22 20 c-57 51 -139 67 -203 39z m176
-85 c36 -36 39 -42 39 -97 0 -93 -53 -154 -132 -154 -67 0 -128 70 -128 148 0
86 52 142 133 142 44 0 53 -4 88 -39z"/>
<path d="M10790 1705 l0 -195 30 0 30 0 0 195 0 195 -30 0 -30 0 0 -195z"/>
<path d="M10642 1578 c-28 -28 -3 -72 39 -66 30 4 47 33 33 56 -14 21 -55 27
-72 10z"/>
</g>
</svg>
