<?xml version="1.0" standalone="no"?>
<!DOCTYPE svg PUBLIC "-//W3C//DTD SVG 20010904//EN"
 "http://www.w3.org/TR/2001/REC-SVG-20010904/DTD/svg10.dtd">
<svg version="1.0" xmlns="http://www.w3.org/2000/svg"
 width="200.000000pt" height="200.000000pt" viewBox="0 0 200.000000 200.000000"
 preserveAspectRatio="xMidYMid meet">

<g transform="translate(0.000000,200.000000) scale(0.100000,-0.100000)"
fill="#000000" stroke="none">
<path d="M1054 1500 c-33 -13 -79 -76 -100 -136 -10 -29 -21 -54 -24 -54 -4 0
-21 20 -39 44 -49 65 -87 89 -146 93 -63 5 -95 -11 -118 -60 -25 -49 -15 -102
29 -169 19 -28 33 -53 30 -55 -2 -2 -23 1 -46 7 -34 9 -46 9 -66 -4 -28 -19
-24 -34 24 -95 26 -31 56 -54 107 -77 48 -22 75 -41 83 -58 19 -43 162 -69
226 -42 22 9 67 16 105 16 48 0 80 7 116 24 79 36 111 81 64 88 -17 2 -10 10
37 41 33 21 70 54 83 74 31 47 39 114 17 132 -23 19 -81 16 -126 -8 -63 -33
-72 -29 -55 20 31 86 6 183 -55 214 -31 16 -112 19 -146 5z m124 -100 c28 -27
29 -77 2 -155 -36 -104 -22 -117 73 -69 99 51 137 52 137 4 0 -42 -34 -76
-115 -115 -40 -19 -77 -40 -81 -46 -8 -14 14 -29 43 -29 38 0 35 -19 -7 -40
-33 -17 -57 -20 -124 -19 -63 1 -90 -2 -107 -15 -24 -16 -84 -20 -129 -7 -21
6 -25 13 -23 39 3 30 1 31 -55 42 -79 17 -148 54 -167 90 -14 28 -14 31 0 37
9 3 34 1 54 -6 52 -15 111 -14 111 2 0 7 -18 35 -41 62 -74 89 -87 138 -47
175 46 43 87 23 178 -88 71 -87 83 -82 132 52 11 33 31 70 44 83 30 30 91 31
122 3z"/>
<path d="M890 703 c0 -137 11 -184 47 -213 27 -21 73 -27 73 -10 0 6 -6 10
-13 10 -33 0 -47 35 -47 118 0 75 2 82 20 82 11 0 20 7 20 15 0 8 -9 15 -20
15 -17 0 -20 7 -20 50 0 49 -1 50 -30 50 l-30 0 0 -117z"/>
<path d="M1520 723 c-40 -21 -60 -54 -60 -100 0 -72 51 -118 124 -111 54 4 61
28 9 28 -56 0 -88 35 -80 86 3 20 14 45 23 55 18 20 59 25 82 11 18 -12 32
-68 32 -130 0 -50 2 -53 23 -50 47 7 29 161 -23 199 -39 28 -89 32 -130 12z"/>
<path d="M396 720 c-15 -5 -36 -16 -46 -25 -23 -21 -41 -101 -33 -149 5 -30
10 -36 29 -36 23 0 24 3 24 65 0 40 6 78 15 95 13 26 21 30 55 30 34 0 42 -4
55 -30 9 -17 15 -55 15 -95 0 -63 1 -65 25 -65 24 0 25 2 25 64 0 76 -11 110
-42 130 -31 19 -86 27 -122 16z"/>
<path d="M641 704 c-55 -46 -50 -149 9 -179 30 -16 77 -19 104 -9 27 10 18 24
-15 24 -17 0 -39 5 -50 11 -66 35 -22 171 49 152 34 -8 52 -53 52 -128 0 -62
1 -65 24 -65 18 0 25 7 29 30 8 36 -8 127 -25 147 -40 48 -130 57 -177 17z"/>
<path d="M1380 717 c-32 -16 -49 -65 -49 -144 l-1 -63 30 0 30 0 0 79 c0 81
12 111 46 111 8 0 14 5 14 10 0 6 -4 10 -9 10 -5 0 -15 2 -23 5 -7 3 -24 -1
-38 -8z"/>
<path d="M1040 659 c0 -109 35 -149 131 -149 42 0 55 5 80 29 16 16 29 40 29
53 0 13 3 47 6 76 l7 52 -32 0 -31 0 0 -65 c0 -97 -26 -135 -87 -123 -28 5
-53 66 -53 131 0 54 -1 57 -25 57 -24 0 -25 -3 -25 -61z"/>
</g>
</svg>
