<?xml version="1.0" standalone="no"?>
<!DOCTYPE svg PUBLIC "-//W3C//DTD SVG 20010904//EN"
 "http://www.w3.org/TR/2001/REC-SVG-20010904/DTD/svg10.dtd">
<svg version="1.0" xmlns="http://www.w3.org/2000/svg"
 width="400.000000pt" height="400.000000pt" viewBox="0 0 400.000000 400.000000"
 preserveAspectRatio="xMidYMid meet">

<g transform="translate(0.000000,400.000000) scale(0.100000,-0.100000)"
fill="#000000" stroke="none">
<path d="M192 2603 c-16 -6 -73 -119 -100 -198 -91 -268 -92 -535 0 -793 63
-181 105 -236 149 -196 26 23 24 34 -15 112 -80 160 -111 317 -103 525 6 165
33 277 97 415 45 95 47 104 24 126 -16 16 -29 19 -52 9z"/>
<path d="M3762 2588 c-16 -16 -15 -39 2 -63 24 -35 76 -166 96 -242 65 -248
42 -504 -67 -734 -38 -81 -43 -100 -34 -118 8 -14 21 -21 41 -21 27 0 33 7 64
68 45 90 80 190 102 292 22 103 25 340 6 444 -18 95 -65 237 -104 316 -29 56
-37 65 -63 68 -17 2 -36 -3 -43 -10z"/>
<path d="M912 2233 c-54 -23 -110 -76 -133 -128 -24 -53 -24 -147 0 -200 23
-51 98 -118 149 -133 107 -32 234 11 284 96 l18 30 -41 16 -41 17 -38 -35
c-50 -45 -103 -54 -163 -28 -41 18 -76 54 -90 95 -6 16 7 17 193 17 l200 0 0
43 c-1 77 -58 165 -133 204 -47 24 -153 27 -205 6z m162 -87 c31 -13 66 -49
66 -68 0 -5 -61 -8 -135 -8 -74 0 -135 4 -135 9 0 15 34 50 65 66 37 19 95 19
139 1z"/>
<path d="M1330 2246 c0 -4 55 -122 168 -359 61 -128 62 -128 93 -125 32 3 35
8 146 242 62 131 113 240 113 242 0 2 -24 4 -53 4 l-54 0 -46 -102 c-25 -57
-60 -134 -77 -173 l-31 -70 -76 173 -76 172 -53 0 c-30 0 -54 -2 -54 -4z"/>
<path d="M1970 2005 l0 -245 45 0 45 0 0 245 0 245 -45 0 -45 0 0 -245z"/>
<path d="M2319 2222 c-39 -20 -62 -41 -84 -77 -30 -48 -30 -49 -33 -217 l-4
-168 46 0 46 0 1 143 c0 82 5 157 12 177 23 67 111 99 177 65 52 -27 60 -57
60 -230 l0 -155 51 0 52 0 -5 163 c-6 176 -13 204 -61 256 -71 75 -167 91
-258 43z"/>
<path d="M2920 2237 c-49 -16 -133 -103 -148 -153 -28 -94 -11 -172 52 -242
106 -117 298 -105 386 23 57 82 59 179 6 267 -44 75 -108 112 -195 115 -36 1
-82 -3 -101 -10z m183 -110 c42 -32 61 -83 55 -142 -7 -55 -32 -89 -86 -116
-62 -31 -121 -20 -172 31 -76 76 -62 181 34 242 44 27 123 21 169 -15z"/>
</g>
</svg>
